<mxfile host="app.diagrams.net" modified="2023-12-22T06:59:48.778Z" agent="Mozilla/5.0 (Windows NT 10.0; Win64; x64) AppleWebKit/537.36 (KHTML, like Gecko) Chrome/120.0.0.0 Safari/537.36 Edg/120.0.0.0" etag="jzAahT3ZkCtC-ZPyE4Zp" version="22.1.11" type="github">
  <diagram name="Page-1" id="c7488fd3-1785-93aa-aadb-54a6760d102a">
    <mxGraphModel dx="372" dy="599" grid="1" gridSize="10" guides="1" tooltips="1" connect="1" arrows="1" fold="1" page="1" pageScale="1" pageWidth="1100" pageHeight="850" background="none" math="0" shadow="0">
      <root>
        <mxCell id="0" />
        <mxCell id="1" parent="0" />
        <mxCell id="NjbZR6TFkXH6fqjsjFDc-15" style="edgeStyle=orthogonalEdgeStyle;orthogonalLoop=1;jettySize=auto;html=1;exitX=1;exitY=0.5;exitDx=0;exitDy=0;entryX=0.5;entryY=0;entryDx=0;entryDy=0;curved=1;" edge="1" parent="1" source="NjbZR6TFkXH6fqjsjFDc-1" target="NjbZR6TFkXH6fqjsjFDc-2">
          <mxGeometry relative="1" as="geometry" />
        </mxCell>
        <mxCell id="NjbZR6TFkXH6fqjsjFDc-1" value="u" style="ellipse;whiteSpace=wrap;html=1;aspect=fixed;" vertex="1" parent="1">
          <mxGeometry x="380" y="130" width="20" height="20" as="geometry" />
        </mxCell>
        <mxCell id="NjbZR6TFkXH6fqjsjFDc-16" style="edgeStyle=orthogonalEdgeStyle;orthogonalLoop=1;jettySize=auto;html=1;exitX=1;exitY=0.5;exitDx=0;exitDy=0;curved=1;" edge="1" parent="1" source="NjbZR6TFkXH6fqjsjFDc-2" target="NjbZR6TFkXH6fqjsjFDc-4">
          <mxGeometry relative="1" as="geometry" />
        </mxCell>
        <mxCell id="NjbZR6TFkXH6fqjsjFDc-17" style="edgeStyle=orthogonalEdgeStyle;orthogonalLoop=1;jettySize=auto;html=1;exitX=0.5;exitY=1;exitDx=0;exitDy=0;entryX=0.5;entryY=0;entryDx=0;entryDy=0;curved=1;" edge="1" parent="1" source="NjbZR6TFkXH6fqjsjFDc-2" target="NjbZR6TFkXH6fqjsjFDc-3">
          <mxGeometry relative="1" as="geometry">
            <Array as="points">
              <mxPoint x="400" y="180" />
              <mxPoint x="400" y="250" />
            </Array>
          </mxGeometry>
        </mxCell>
        <mxCell id="NjbZR6TFkXH6fqjsjFDc-2" value="1" style="ellipse;whiteSpace=wrap;html=1;aspect=fixed;" vertex="1" parent="1">
          <mxGeometry x="410" y="160" width="20" height="20" as="geometry" />
        </mxCell>
        <mxCell id="NjbZR6TFkXH6fqjsjFDc-19" style="edgeStyle=orthogonalEdgeStyle;orthogonalLoop=1;jettySize=auto;html=1;exitX=1;exitY=0.5;exitDx=0;exitDy=0;curved=1;" edge="1" parent="1" source="NjbZR6TFkXH6fqjsjFDc-3" target="NjbZR6TFkXH6fqjsjFDc-5">
          <mxGeometry relative="1" as="geometry" />
        </mxCell>
        <mxCell id="NjbZR6TFkXH6fqjsjFDc-3" value="3" style="ellipse;whiteSpace=wrap;html=1;aspect=fixed;" vertex="1" parent="1">
          <mxGeometry x="410" y="250" width="20" height="20" as="geometry" />
        </mxCell>
        <mxCell id="NjbZR6TFkXH6fqjsjFDc-18" style="edgeStyle=orthogonalEdgeStyle;orthogonalLoop=1;jettySize=auto;html=1;exitX=0.5;exitY=1;exitDx=0;exitDy=0;curved=1;entryX=1;entryY=0.5;entryDx=0;entryDy=0;" edge="1" parent="1" source="NjbZR6TFkXH6fqjsjFDc-4" target="NjbZR6TFkXH6fqjsjFDc-3">
          <mxGeometry relative="1" as="geometry">
            <mxPoint x="420" y="240" as="targetPoint" />
          </mxGeometry>
        </mxCell>
        <mxCell id="NjbZR6TFkXH6fqjsjFDc-4" value="2" style="ellipse;whiteSpace=wrap;html=1;aspect=fixed;" vertex="1" parent="1">
          <mxGeometry x="460" y="210" width="20" height="20" as="geometry" />
        </mxCell>
        <mxCell id="NjbZR6TFkXH6fqjsjFDc-20" style="edgeStyle=orthogonalEdgeStyle;orthogonalLoop=1;jettySize=auto;html=1;exitX=0.5;exitY=1;exitDx=0;exitDy=0;curved=1;" edge="1" parent="1" source="NjbZR6TFkXH6fqjsjFDc-5" target="NjbZR6TFkXH6fqjsjFDc-6">
          <mxGeometry relative="1" as="geometry" />
        </mxCell>
        <mxCell id="NjbZR6TFkXH6fqjsjFDc-5" value="4" style="ellipse;whiteSpace=wrap;html=1;aspect=fixed;" vertex="1" parent="1">
          <mxGeometry x="470" y="290" width="20" height="20" as="geometry" />
        </mxCell>
        <mxCell id="NjbZR6TFkXH6fqjsjFDc-21" style="edgeStyle=orthogonalEdgeStyle;orthogonalLoop=1;jettySize=auto;html=1;exitX=0.5;exitY=1;exitDx=0;exitDy=0;entryX=0.5;entryY=0;entryDx=0;entryDy=0;curved=1;" edge="1" parent="1" source="NjbZR6TFkXH6fqjsjFDc-6" target="NjbZR6TFkXH6fqjsjFDc-7">
          <mxGeometry relative="1" as="geometry" />
        </mxCell>
        <mxCell id="NjbZR6TFkXH6fqjsjFDc-6" value="5" style="ellipse;whiteSpace=wrap;html=1;aspect=fixed;" vertex="1" parent="1">
          <mxGeometry x="490" y="360" width="20" height="20" as="geometry" />
        </mxCell>
        <mxCell id="NjbZR6TFkXH6fqjsjFDc-22" style="edgeStyle=orthogonalEdgeStyle;orthogonalLoop=1;jettySize=auto;html=1;exitX=0.5;exitY=1;exitDx=0;exitDy=0;entryX=0.5;entryY=0;entryDx=0;entryDy=0;curved=1;" edge="1" parent="1" source="NjbZR6TFkXH6fqjsjFDc-7" target="NjbZR6TFkXH6fqjsjFDc-8">
          <mxGeometry relative="1" as="geometry" />
        </mxCell>
        <mxCell id="NjbZR6TFkXH6fqjsjFDc-7" value="6" style="ellipse;whiteSpace=wrap;html=1;aspect=fixed;" vertex="1" parent="1">
          <mxGeometry x="500" y="425" width="20" height="20" as="geometry" />
        </mxCell>
        <mxCell id="NjbZR6TFkXH6fqjsjFDc-24" style="edgeStyle=orthogonalEdgeStyle;orthogonalLoop=1;jettySize=auto;html=1;exitX=0.5;exitY=1;exitDx=0;exitDy=0;curved=1;" edge="1" parent="1" source="NjbZR6TFkXH6fqjsjFDc-8" target="NjbZR6TFkXH6fqjsjFDc-9">
          <mxGeometry relative="1" as="geometry">
            <Array as="points">
              <mxPoint x="520" y="500" />
              <mxPoint x="560" y="500" />
            </Array>
          </mxGeometry>
        </mxCell>
        <mxCell id="NjbZR6TFkXH6fqjsjFDc-27" style="edgeStyle=orthogonalEdgeStyle;orthogonalLoop=1;jettySize=auto;html=1;exitX=0.5;exitY=1;exitDx=0;exitDy=0;entryX=0.5;entryY=0;entryDx=0;entryDy=0;curved=1;" edge="1" parent="1" source="NjbZR6TFkXH6fqjsjFDc-8" target="NjbZR6TFkXH6fqjsjFDc-10">
          <mxGeometry relative="1" as="geometry">
            <Array as="points">
              <mxPoint x="430" y="480" />
            </Array>
          </mxGeometry>
        </mxCell>
        <mxCell id="NjbZR6TFkXH6fqjsjFDc-8" value="7" style="ellipse;whiteSpace=wrap;html=1;aspect=fixed;" vertex="1" parent="1">
          <mxGeometry x="510" y="470" width="20" height="20" as="geometry" />
        </mxCell>
        <mxCell id="NjbZR6TFkXH6fqjsjFDc-25" style="edgeStyle=orthogonalEdgeStyle;orthogonalLoop=1;jettySize=auto;html=1;exitX=1;exitY=0.5;exitDx=0;exitDy=0;curved=1;" edge="1" parent="1" source="NjbZR6TFkXH6fqjsjFDc-9">
          <mxGeometry relative="1" as="geometry">
            <mxPoint x="480" y="640" as="targetPoint" />
            <Array as="points">
              <mxPoint x="570" y="540" />
              <mxPoint x="580" y="540" />
              <mxPoint x="580" y="640" />
            </Array>
          </mxGeometry>
        </mxCell>
        <mxCell id="NjbZR6TFkXH6fqjsjFDc-9" value="8" style="ellipse;whiteSpace=wrap;html=1;aspect=fixed;" vertex="1" parent="1">
          <mxGeometry x="550" y="520" width="20" height="20" as="geometry" />
        </mxCell>
        <mxCell id="NjbZR6TFkXH6fqjsjFDc-26" style="edgeStyle=orthogonalEdgeStyle;orthogonalLoop=1;jettySize=auto;html=1;exitX=0.5;exitY=1;exitDx=0;exitDy=0;curved=1;entryX=0.5;entryY=0;entryDx=0;entryDy=0;" edge="1" parent="1" source="NjbZR6TFkXH6fqjsjFDc-10">
          <mxGeometry relative="1" as="geometry">
            <mxPoint x="470" y="630" as="targetPoint" />
            <Array as="points">
              <mxPoint x="430" y="630" />
            </Array>
          </mxGeometry>
        </mxCell>
        <mxCell id="NjbZR6TFkXH6fqjsjFDc-10" value="9" style="ellipse;whiteSpace=wrap;html=1;aspect=fixed;" vertex="1" parent="1">
          <mxGeometry x="420" y="550" width="20" height="20" as="geometry" />
        </mxCell>
        <mxCell id="NjbZR6TFkXH6fqjsjFDc-28" style="edgeStyle=orthogonalEdgeStyle;orthogonalLoop=1;jettySize=auto;html=1;exitX=0;exitY=0.5;exitDx=0;exitDy=0;entryX=0;entryY=0.5;entryDx=0;entryDy=0;curved=1;" edge="1" parent="1" target="NjbZR6TFkXH6fqjsjFDc-1">
          <mxGeometry relative="1" as="geometry">
            <mxPoint x="459.99999999999363" y="640" as="sourcePoint" />
          </mxGeometry>
        </mxCell>
      </root>
    </mxGraphModel>
  </diagram>
</mxfile>
